<svg id="Calque_1" data-name="Calque 1" xmlns="http://www.w3.org/2000/svg" viewBox="0 0 35.42 31.94"><defs><style>.cls-1{fill:#ffffff;}</style></defs><path class="cls-1" d="M34,3.42,19.26,19.53a.7.7,0,0,1-1,.08s-15.64-16-15.68-16l16.64,15-1,.05L31.73,1.48,34,3.42Z"/><path class="cls-1" d="M34.89,7.24c0,4.86.16,9.71.41,14.57l.08,1.82c.32,3.38-1.44,8.2-5.5,8.14C22.66,32,15.27,32,8,31.8l-1.82,0c-4.29.41-6.3-4.06-6.22-7.58L.51,9.6c0-3.11.25-7,3.2-9A3.75,3.75,0,0,1,5.9,0L9.54.13q7.28.3,14.55.7l5.45.24A5.1,5.1,0,0,1,34.2,3.64a7.25,7.25,0,0,1,.69,3.6Zm-.3,0A7,7,0,0,0,34,3.76a4.68,4.68,0,0,0-4.44-2.34l-5.46,0c-6,.11-12.18.2-18.21.17-3.44.43-3.48,5.24-3.41,8L2.4,24.16c.05,1.85.9,4.76,2.91,4.89L8,29c6-.15,12.17-.23,18.2-.11.37,0,4,.13,4.26.09,2.13-.58,2.89-3.31,3.06-5.37.45-5.45.88-10.91,1-16.36Z"/></svg>