<svg id="Calque_1" data-name="Calque 1" xmlns="http://www.w3.org/2000/svg" viewBox="0 0 36.5 33.57"><defs><style>.cls-1{fill:#ffffff;}</style></defs><path class="cls-1" d="M28.9,1.46c-6.35-.08-12.71.78-19.06,1.09-2,.12-3.87,0-5.51.89A3.81,3.81,0,0,0,2.41,7c-.37,6.61-.89,13.23-.7,19.86.17,5.71,7.13,4.14,11,4.05,4.82-.22,9.64-.29,14.46-.39,1.84.08,4-.43,5.07-2s1.21-4,1.22-5.95q.08-3.6.31-7.21l.57-7.21c.5-3.57-1.58-6.75-5.42-6.65Zm0-.3c4.16-.18,6.59,3.22,6.67,7l.59,7.2q.24,3.6.32,7.2c.05,2.21.22,5.43-1.69,7.88a8.53,8.53,0,0,1-7.74,3.13c-4.79-.1-9.58-.17-14.38-.4-2.21-.21-5.13-.08-7.34-.64-2.6-.56-4.88-3-4.57-5.78C1,20.26.37,13.15,0,6.49,0,.91,5.35-.45,9.88.12c6.34.3,12.67,1.14,19,1Z"/><path class="cls-1" d="M15.65,24.06c-2.75-.51-5.63-2-6.81-4.71-2-4.12.67-9.49,4.92-10.76a10.48,10.48,0,0,1,12.17,4.09c2.75,4,1.71,10.52-3.67,11.71-2.19.49-4.44,0-6.61-.33Zm.06-.29a8,8,0,0,0,7.36-2.45c3.14-3.21,4-9.3-1.31-10.84-3.75-.94-8.84.44-10.19,4.34-1.15,3.3,0,8.19,4.14,9Z"/><path class="cls-1" d="M28.73,10.81c3.21,0,3.22-5,0-5s-3.23,5,0,5Z"/></svg>