<svg id="Calque_1" data-name="Calque 1" xmlns="http://www.w3.org/2000/svg" viewBox="0 0 44.29 34.24"><defs><style>.cls-1{fill:#ffffff;}</style></defs><path class="cls-1" d="M23.37,9.17C16.92,13.45,6.54,8.36.85,4.5L3.79,2.77A11.88,11.88,0,0,0,4.33,6C5.4,9.47,8,12.23,11,14.34a13,13,0,0,1-9.76-7C.5,5.49-1.32,1.59,1.63,1a1.92,1.92,0,0,1,1.31.33c3.16,1.81,6.51,3.6,9.83,5.14s6.74,3.09,10.6,2.7Z"/><path class="cls-1" d="M15.4,26.29a11.13,11.13,0,0,1-9.63,4.33l.9-2c6.75,4.11,18.48,5.28,25,.08,4.67-3.86,6.09-9.79,6.23-15.61a17.06,17.06,0,0,0-1.48-8C34.48.38,24.78.87,23.9,7.29a.16.16,0,0,1-.17.13.16.16,0,0,1-.13-.15,6.32,6.32,0,0,1,1.56-4.5A9.34,9.34,0,0,1,34.52.35c3.54.94,5.57,4.67,6.19,8A25.7,25.7,0,0,1,38.9,22.68C36,28.75,29.77,31.73,23.62,33.12,19,34.38,14,34.91,9.46,32.93a14.82,14.82,0,0,1-4.29-2.58A1.13,1.13,0,0,1,5,28.75a1.15,1.15,0,0,1,1-.37,12.26,12.26,0,0,0,9.11-2.3c.14-.1.31.09.21.21Z"/><path class="cls-1" d="M15.65,25.13a13.51,13.51,0,0,1-9.52-.06c-1-.41-3.93-2.81-2.12-3.89A14.77,14.77,0,0,1,6,21,14.34,14.34,0,0,0,11,20c-1.34,2.21-4.18,2.9-6.6,3.11l.88-1.39c1.8,3.07,7,3,10.33,3.44Z"/><path class="cls-1" d="M11,20a7.71,7.71,0,0,1-8.7-2.3,8.25,8.25,0,0,1-1.51-3,1.51,1.51,0,0,1,1.86-1.83,60.65,60.65,0,0,0,6.16,1.61A4,4,0,0,0,11,14.34c-.81,1.5-2.87,1.77-4.4,1.88a16.06,16.06,0,0,1-4.73-.52L3.7,13.86C4.64,17.25,7.82,19,11,20Z"/><path class="cls-1" d="M44.24,1.58c.48,2.35-2.73,4.44-4.52,2.64a15.68,15.68,0,0,1,4.52-2.64Z"/><path class="cls-1" d="M44.09,5c.45,2.61-2.51,3.16-3.17.55,0,0,0-.08,0-.08a8.35,8.35,0,0,0,3-.63c.09,0,.1.11.11.16Z"/></svg>