<svg id="logo" aria-label="la-cocosine-logo" width="100" xmlns="http://www.w3.org/2000/svg" viewBox="0 0 113.93 95.21"><defs><style>.cls-1{fill:white;}</style></defs><path class="cls-1" d="M18.34,61.87c13-.58,26.42-1,39.65-1.1,13.56,0,27.23,1,40.75.69a.5.5,0,0,1,.47.67c-3.1,7.93-6.57,16.14-13.27,21.77-2.13,1.92-6.36,3.41-8.43,3-3.29.23-6.47.28-9.69.35q-9.61.18-19.23,0c-3.31-.1-6.65-.09-10-.33-10.62-4-17.58-14.41-20.3-25Zm.25.18C23,72.17,29.72,80.61,39,84.13c9.24-.07,19.49,0,28.78.1,3.26,0,6.55,0,9.73-.08,7.82.43,13.57-8.86,17.12-14.85a63.93,63.93,0,0,0,3.61-7.51l.47.67c-13.25-.32-26.34.7-39.53.69-13.53-.09-26.86-.55-40.62-1.1Z"/><path class="cls-1" d="M40.61,85.48a42.64,42.64,0,0,0-9.27,9l-.78-1.64c4.93-.23,9.87-.33,14.8-.33s9.86.35,14.79.63c9.87.62,19.73,0,29.59-.51l-1.18,1.53a13.66,13.66,0,0,0-9-6.75,30.88,30.88,0,0,0-6.17-.29c-10.9-.08-21.93-.25-32.74-1.66Zm-.07-.3C49.36,84.64,58,84.13,66.79,84c4.47.06,9-.5,13.43.45a16.22,16.22,0,0,1,9.85,7.28c.56.92,1.64,2.78,0,3.32-10-.29-20-1.16-29.95-.47-4.93.28-9.86.64-14.79.63s-9.87-.1-14.8-.33a1,1,0,0,1-.78-1.64,31.67,31.67,0,0,1,10.76-8.06Z"/><path class="cls-1" d="M29,58.11C29.44,47,35.78,35.69,46.56,31.68s24.54-3.12,32.7,5.68a30.4,30.4,0,0,1,8.17,20.73.31.31,0,0,1-.59.11c-3.16-6.47-6.9-12.32-11.76-16.53a32.33,32.33,0,0,0-7.92-5.14c-8.87-4-20.51-2.85-28,3.64-5.11,4.42-8.32,11.08-9.59,18a.3.3,0,0,1-.6-.07Z"/><path class="cls-1" d="M45.57,1.22c5.7-.75,12.84-1.65,18.88-1a1,1,0,0,1,1.11,1.1C63.81,5,61.85,8.67,60.74,12.65c-1.12,3.82-2.09,7.71-3.44,11.46a1.43,1.43,0,0,1-2.66.09C50.81,17,48,8.89,45.57,1.22Zm.25.16c4,7,8.57,14.12,11.45,21.61l-2.66.09C57.73,15.69,61.88,8.9,63.45.92l1,1.46C58,3.07,52.6,2,45.82,1.38Z"/><path class="cls-1" d="M87.45,7.65C86,13.21,84.74,19.74,82.39,24.89c-.78,1.68-1.68,3.36-2.44,5.16l-.75-.66a70.84,70.84,0,0,0,10.56-5.88c3.45-2.07,7-4,10.58-5.82L100,20.36c-4.66-4-8.07-8.12-12.56-12.71Zm-.08-.29c3.34,2.16,7.52,4.91,11,7.53,1.28,1,2.55,2,3.77,3a1.62,1.62,0,0,1-.34,2.67c-3.63,1.74-7.29,3.41-11,4.91a71.64,71.64,0,0,0-11.06,4.86.51.51,0,0,1-.71-.19.52.52,0,0,1,0-.47c.57-1.93,1-4,1.54-6C82,18,84.77,12.45,87.37,7.36Z"/><path class="cls-1" d="M109,35.05c-1.47,1.55-2.82,3.08-4.07,4.53-3.43,4-7,6.64-10.87,10L93.15,47l19.37,1.17L111,50c-.26-1.12-.51-2.22-.74-3.32l-.65-3.3c-.2-2.78-.2-5.48-.61-8.33Zm0,0c.69,1.63,1.69,3.68,2.5,5.35a3.68,3.68,0,0,1,.36.92c.62,2.33,1.54,5.67,2.06,8a1.52,1.52,0,0,1-1.55,1.85L93,50a1.51,1.51,0,0,1-.88-2.64c5.34-4.43,10.7-9.24,16.88-12.28Z"/><path class="cls-1" d="M23,9.13c2.42,3.65,7.74,11.4,10,15l3.33,5.44a1.4,1.4,0,0,1-.47,1.93,1.36,1.36,0,0,1-1.31.08c-7.55-3-15.32-6.32-22.65-9.81A1.12,1.12,0,0,1,11.6,20c1-1,1.94-2,2.94-2.93,1.82-1.76,6.56-6.17,8.48-7.95Zm0,0c-2.22,2.81-5.18,6.71-7.38,9.53-.76,1-1.56,1.94-2.34,2.9l-.41-1.84c7.58,2.79,15.35,6,22.76,9.28l-1.79,2C30.65,25.12,26,15.26,23,9.13Z"/><path class="cls-1" d="M5.31,36.64C3.9,41.19,2.68,45.54,1.4,49.75l-.67-1c7.54-.2,15.08-.29,22.61-.55l-.88,2.65c-6.09-4-11.63-9.42-17.15-14.26Zm-.09-.29c6.43,3.62,13.15,7.51,19,12.18a1.46,1.46,0,0,1-.88,2.66c-7.55-.4-15.11-.64-22.66-1a.69.69,0,0,1-.61-.95L5.22,36.35Z"/></svg>